<svg id="Ebene_1" data-name="Ebene 1" xmlns="http://www.w3.org/2000/svg" viewBox="0 0 63.99 64"><path d="M63,39.74A32,32,0,1,1,39.74,1,32,32,0,0,1,63,39.74Z" transform="translate(0 0)" fill="#f7931a"/><path d="M46.11,27.44c.64-4.26-2.61-6.55-7-8.07l1.44-5.77L37,12.72l-1.4,5.62c-.92-.23-1.87-.45-2.81-.66L34.2,12l-3.51-.87-1.44,5.77L27,16.39v0l-4.84-1.21-.94,3.75s2.61.6,2.55.64a1.86,1.86,0,0,1,1.64,2l-1.64,6.57a2,2,0,0,1,.37.12l-.37-.1-2.3,9.21a1.28,1.28,0,0,1-1.61.83c0,.05-2.55-.63-2.55-.63l-1.74,4,4.56,1.14,2.51.65-1.46,5.83,3.51.88,1.44-5.77c1,.26,1.89.5,2.8.72L27.5,50.8l3.52.87,1.45-5.82c6,1.13,10.49.68,12.38-4.74,1.53-4.36-.07-6.87-3.22-8.51C43.92,32.07,45.65,30.56,46.11,27.44Zm-8,11.25c-1.09,4.36-8.43,2-10.81,1.41l1.93-7.73C31.59,33,39.22,34.14,38.09,38.69Zm1.08-11.31c-1,4-7.1,1.95-9.08,1.45l1.75-7C33.82,22.32,40.2,23.24,39.17,27.38Z" transform="translate(0 0)" fill="#fff"/></svg>